<?xml version="1.0" encoding="UTF-8"?>
<svg width="60px" height="60px" viewBox="0 0 60 60" version="1.1" xmlns="http://www.w3.org/2000/svg" xmlns:xlink="http://www.w3.org/1999/xlink">
    <!-- Generator: Sketch 52.5 (67469) - http://www.bohemiancoding.com/sketch -->
    <title>Chatt 1</title>
    <desc>Created with Sketch.</desc>
    <g id="Chatt-1" stroke="none" stroke-width="1" fill="none" fill-rule="evenodd" stroke-linecap="round" stroke-linejoin="round">
        <g id="chatt_ikon" transform="translate(9.000000, 10.000000)" stroke="#132845" stroke-width="3">
            <g id="_Group_" transform="translate(0.000000, 13.000000)">
                <path d="M20,25 C20,19.4771525 15.5228475,15 10,15 C4.4771525,15 8.8817842e-16,19.4771525 8.8817842e-16,25" id="Shape"></path>
                <circle id="Oval" cx="10" cy="6" r="6"></circle>
            </g>
            <path d="M20,18 L23,18 L23,22 L28,18 L32,18 C36.9705627,18 41,13.9705627 41,9 C41,4.02943725 36.9705627,2.22044605e-16 32,0 L20,0 C15.0294373,-2.22044605e-16 11,4.02943725 11,9" id="Shape"></path>
            <path d="M32,8.5 C32.2761424,8.5 32.5,8.72385763 32.5,9 C32.5,9.27614237 32.2761424,9.5 32,9.5 C31.7238576,9.5 31.5,9.27614237 31.5,9 C31.5,8.72385763 31.7238576,8.5 32,8.5" id="Shape"></path>
            <path d="M26,8.5 C26.2761424,8.5 26.5,8.72385763 26.5,9 C26.5,9.27614237 26.2761424,9.5 26,9.5 C25.7238576,9.5 25.5,9.27614237 25.5,9 C25.5,8.72385763 25.7238576,8.5 26,8.5" id="Shape"></path>
            <path d="M20,8.5 C20.2761424,8.5 20.5,8.72385763 20.5,9 C20.5,9.27614237 20.2761424,9.5 20,9.5 C19.7238576,9.5 19.5,9.27614237 19.5,9 C19.5,8.72385763 19.7238576,8.5 20,8.5" id="Shape"></path>
        </g>
    </g>
</svg>