<?xml version="1.0" encoding="UTF-8"?>
<svg width="27px" height="26px" viewBox="0 0 27 26" version="1.1" xmlns="http://www.w3.org/2000/svg" xmlns:xlink="http://www.w3.org/1999/xlink">
    <!-- Generator: Sketch 52.2 (67145) - http://www.bohemiancoding.com/sketch -->
    <title>facebook</title>
    <desc>Created with Sketch.</desc>
    <g id="Beta-1.2" stroke="none" stroke-width="1" fill="none" fill-rule="evenodd">
        <g id="Landing_Overview" transform="translate(-131.000000, -3921.000000)">
            <g id="Fotter_overview" transform="translate(0.000000, 3776.000000)">
                <g id="facebook" transform="translate(131.000000, 145.000000)">
                    <path d="M13.6917808,26 C20.7842466,26 26.5342466,20.2496993 26.5342466,13.1568627 C26.5342466,6.06402614 20.7842466,0.31372549 13.6917808,0.31372549 C6.59931507,0.31372549 0.849315068,6.06402614 0.849315068,13.1568627 C0.849315068,20.2496993 6.59931507,26 13.6917808,26 Z" id="Path" fill="#FFFFFF"></path>
                    <path d="M16.0188356,13.5729804 L14.2414384,13.5729804 L14.2414384,20.0065359 L11.5479452,20.0065359 L11.5479452,13.5729804 L10.2671233,13.5729804 L10.2671233,11.311732 L11.5479452,11.311732 L11.5479452,9.84847059 C11.5479452,8.80218301 12.0513699,7.16339869 14.265411,7.16339869 L16.260274,7.17196078 L16.260274,9.36642484 L14.8125,9.36642484 C14.5753425,9.36642484 14.2414384,9.48372549 14.2414384,9.98289542 L14.2414384,11.3134444 L16.2542808,11.3134444 L16.0188356,13.5729804 Z" id="Path" fill="#40BAB1"></path>
                </g>
            </g>
        </g>
    </g>
</svg>