<?xml version="1.0" encoding="UTF-8"?>
<svg width="26px" height="26px" viewBox="0 0 26 26" version="1.1" xmlns="http://www.w3.org/2000/svg" xmlns:xlink="http://www.w3.org/1999/xlink">
    <!-- Generator: Sketch 52.2 (67145) - http://www.bohemiancoding.com/sketch -->
    <title>Instagram</title>
    <desc>Created with Sketch.</desc>
    <g id="Beta-1.2" stroke="none" stroke-width="1" fill="none" fill-rule="evenodd">
        <g id="Landing_Overview" transform="translate(-89.000000, -3921.000000)">
            <g id="Fotter_overview" transform="translate(0.000000, 3776.000000)">
                <g id="Instagram" transform="translate(89.041096, 145.313725)">
                    <path d="M12.8424658,0 C19.9349315,0 25.6849315,5.75030065 25.6849315,12.8431373 C25.6849315,19.9359739 19.9349315,25.6862745 12.8424658,25.6862745 C5.75,25.6862745 0,19.9359739 0,12.8431373 C0,5.75030065 5.74914384,0 12.8424658,0 Z" id="Path" fill="#FFFFFF"></path>
                    <path d="M17.2748288,5.61758824 L8.40924658,5.61758824 C6.86900685,5.61758824 5.61729452,6.87022222 5.61729452,8.40968627 L5.61729452,17.2765882 C5.61729452,18.8169085 6.86986301,20.0686863 8.40924658,20.0686863 L17.2756849,20.0686863 C18.8159247,20.0686863 20.067637,18.8160523 20.067637,17.2765882 L20.067637,8.40968627 C20.067637,6.87022222 18.8150685,5.61758824 17.2748288,5.61758824 Z M18.1541096,7.2332549 L18.4708904,7.23239869 L18.4708904,9.63064052 L16.0547945,9.63920261 L16.0462329,7.24010458 L18.1541096,7.2332549 Z M12.8424658,10.4252026 C14.8467466,10.4252026 15.260274,12.3071503 15.260274,12.8439935 C15.260274,14.1753987 14.1746575,15.2610719 12.8424658,15.2610719 C11.5094178,15.2610719 10.4246575,14.1753987 10.4246575,12.8439935 C10.4238014,12.3071503 10.8381849,10.4252026 12.8424658,10.4252026 Z M18.484589,17.1010654 C18.484589,17.8648039 17.8638699,18.4864118 17.0993151,18.4864118 L8.55821918,18.4864118 C7.79452055,18.4864118 7.17294521,17.8656601 7.17294521,17.1010654 L7.17294521,11.2343203 L9.17979452,11.2343203 C8.99400685,11.6932484 8.88869863,12.3191373 8.88869863,12.8439935 C8.88869863,15.0221895 10.6609589,16.7953987 12.8398973,16.7953987 C15.0188356,16.7953987 16.7902397,15.0221895 16.7902397,12.8439935 C16.7902397,12.3191373 16.6857877,11.6932484 16.5,11.2343203 L18.4828767,11.2343203 L18.4828767,17.1010654 L18.484589,17.1010654 Z" id="Shape" fill="#40BAB1" fill-rule="nonzero"></path>
                </g>
            </g>
        </g>
    </g>
</svg>