<?xml version="1.0" encoding="UTF-8"?>
<svg width="27px" height="26px" viewBox="0 0 27 26" version="1.1" xmlns="http://www.w3.org/2000/svg" xmlns:xlink="http://www.w3.org/1999/xlink">
    <!-- Generator: Sketch 52.2 (67145) - http://www.bohemiancoding.com/sketch -->
    <title>LinkedIn</title>
    <desc>Created with Sketch.</desc>
    <g id="Beta-1.2" stroke="none" stroke-width="1" fill="none" fill-rule="evenodd">
        <g id="Landing_Overview" transform="translate(-174.000000, -3921.000000)">
            <g id="Fotter_overview" transform="translate(0.000000, 3776.000000)">
                <g id="LinkedIn" transform="translate(174.657534, 145.313725)">
                    <path d="M12.8424658,0 C19.9357877,0 25.6849315,5.75030065 25.6849315,12.8431373 C25.6849315,19.9359739 19.9357877,25.6862745 12.8424658,25.6862745 C5.74914384,25.6862745 0,19.9359739 0,12.8431373 C0,5.75030065 5.74914384,0 12.8424658,0 Z" id="Path" fill="#FFFFFF"></path>
                    <path d="M7.23715753,17.6464706 L9.64212329,17.6464706 L9.64212329,9.63064052 L7.23715753,9.63064052 L7.23715753,17.6464706 Z M16.6061644,9.35322876 C15.4383562,9.35322876 14.3946918,9.77962092 13.6532534,10.7197386 L13.6532534,9.60409804 L11.239726,9.60409804 L11.239726,17.6464706 L13.6532534,17.6464706 L13.6532534,13.2977843 C13.6532534,12.3782157 14.4957192,11.4817647 15.5505137,11.4817647 C16.6053082,11.4817647 16.864726,12.3782157 16.864726,13.2746667 L16.864726,17.6456144 L19.2696918,17.6456144 L19.2696918,13.095719 C19.2696918,9.93545098 17.7739726,9.35322876 16.6061644,9.35322876 Z M8.42808219,8.82922876 C9.09332192,8.82922876 9.63270548,8.28981699 9.63270548,7.62539869 C9.63270548,6.96098039 9.09332192,6.42156863 8.42808219,6.42156863 C7.76369863,6.42156863 7.22431507,6.96098039 7.22431507,7.62539869 C7.22431507,8.2906732 7.76369863,8.82922876 8.42808219,8.82922876 Z" id="Shape" fill="#40BAB1" fill-rule="nonzero"></path>
                </g>
            </g>
        </g>
    </g>
</svg>