<?xml version="1.0" encoding="UTF-8"?>
<svg width="27px" height="26px" viewBox="0 0 27 26" version="1.1" xmlns="http://www.w3.org/2000/svg" xmlns:xlink="http://www.w3.org/1999/xlink">
    <!-- Generator: Sketch 52.2 (67145) - http://www.bohemiancoding.com/sketch -->
    <title>Twitter</title>
    <desc>Created with Sketch.</desc>
    <g id="Beta-1.2" stroke="none" stroke-width="1" fill="none" fill-rule="evenodd">
        <g id="Landing_Overview" transform="translate(-217.000000, -3921.000000)">
            <g id="Fotter_overview" transform="translate(0.000000, 3776.000000)">
                <g id="Twitter" transform="translate(217.465753, 145.313725)">
                    <path d="M12.8433219,25.6862745 C19.9357877,25.6862745 25.6857877,19.9359739 25.6857877,12.8431373 C25.6857877,5.75030065 19.9357877,0 12.8433219,0 C5.75085616,0 0.000856164384,5.75030065 0.000856164384,12.8431373 C0.000856164384,19.9359739 5.75085616,25.6862745 12.8433219,25.6862745 Z" id="Path" fill="#FFFFFF"></path>
                    <path d="M20.7089041,9.22993464 C20.1583904,9.47395425 19.5667808,9.63920261 18.9460616,9.7128366 C19.5796233,9.33267974 20.0659247,8.73162092 20.2962329,8.01497386 C19.702911,8.36687582 19.0453767,8.62202614 18.3467466,8.75901961 C17.7868151,8.16309804 16.9888699,7.79064706 16.1053082,7.79064706 C14.4101027,7.79064706 13.0359589,9.16486275 13.0359589,10.8601569 C13.0359589,11.1007516 13.0633562,11.3353529 13.1155822,11.5596797 C10.5642123,11.4321046 8.30222603,10.2094379 6.7885274,8.35146405 C6.5239726,8.8052549 6.37243151,9.33267974 6.37243151,9.89520915 C6.37243151,10.9603333 6.91523973,11.900451 7.7380137,12.4509935 C7.23544521,12.4347255 6.76113014,12.2968758 6.34760274,12.0665556 C6.34760274,12.0793987 6.34760274,12.0922418 6.34760274,12.105085 C6.34760274,13.5923203 7.40582192,14.8329673 8.80993151,15.1146601 C8.55308219,15.1857255 8.28082192,15.2225425 8.00171233,15.2225425 C7.80308219,15.2225425 7.61130137,15.2037059 7.42380137,15.1677451 C7.81421233,16.3869869 8.94777397,17.2748758 10.2919521,17.2997059 C9.24058219,18.1233791 7.91695205,18.6139869 6.47859589,18.6139869 C6.23116438,18.6139869 5.98630137,18.5994314 5.74657534,18.5711765 C7.10445205,19.4427974 8.71832192,19.9505294 10.4520548,19.9505294 C16.0984589,19.9505294 19.1857877,15.2730588 19.1857877,11.2154837 C19.1857877,11.0827712 19.1832192,10.9500588 19.177226,10.8190588 C19.7773973,10.385817 20.2979452,9.84554902 20.7089041,9.22993464 Z" id="Path" fill="#40BAB1"></path>
                </g>
            </g>
        </g>
    </g>
</svg>