<?xml version="1.0" encoding="UTF-8"?>
<svg width="26px" height="26px" viewBox="0 0 26 26" version="1.1" xmlns="http://www.w3.org/2000/svg" xmlns:xlink="http://www.w3.org/1999/xlink">
    <!-- Generator: Sketch 52.2 (67145) - http://www.bohemiancoding.com/sketch -->
    <title>YouTube</title>
    <desc>Created with Sketch.</desc>
    <g id="Beta-1.2" stroke="none" stroke-width="1" fill="none" fill-rule="evenodd">
        <g id="Landing_Overview" transform="translate(-261.000000, -3921.000000)">
            <g id="Fotter_overview" transform="translate(0.000000, 3776.000000)">
                <g id="YouTube" transform="translate(261.130137, 145.313725)">
                    <path d="M12.8424658,25.6862745 C19.9349315,25.6862745 25.6849315,19.9359739 25.6849315,12.8431373 C25.6849315,5.75030065 19.9349315,0 12.8424658,0 C5.75,0 0,5.75030065 0,12.8431373 C0,19.9359739 5.75,25.6862745 12.8424658,25.6862745 Z" id="Path" fill="#FFFFFF"></path>
                    <path d="M21.9229452,3.76047059 C26.9383562,8.77614379 26.9392123,16.9084183 21.9229452,21.9240915 C16.9075342,26.9397647 8.77568493,26.9406209 3.76027397,21.9240915 L21.9229452,3.76047059 Z" id="Path" fill="#FFFFFF"></path>
                    <path d="M19.5633562,10.3644118 C19.5633562,9.28815686 18.6909247,8.41567974 17.614726,8.41567974 L8.47517123,8.41567974 C7.3989726,8.41567974 6.52739726,9.28815686 6.52739726,10.3644118 L6.52739726,15.5915686 C6.52739726,16.6686797 7.3989726,17.5411569 8.47517123,17.5411569 L17.614726,17.5411569 C18.6909247,17.5411569 19.5633562,16.6686797 19.5633562,15.5915686 L19.5633562,10.3644118 Z M11.7414384,15.1831569 L11.7414384,10.2736536 L15.4640411,12.7284052 L11.7414384,15.1831569 Z" id="Shape" fill="#40BAB1" fill-rule="nonzero"></path>
                </g>
            </g>
        </g>
    </g>
</svg>